<svg width="116" height="116" viewBox="0 0 116 116" fill="none" xmlns="http://www.w3.org/2000/svg">
<g clip-path="url(#clip0_285_1659)">
<path d="M58 116C90.0325 116 116 90.0325 116 58C116 25.9675 90.0325 0 58 0C25.9675 0 0 25.9675 0 58C0 90.0325 25.9675 116 58 116Z" fill="#25B7D3"/>
<path d="M28.4728 87.5272V26.3636C28.4728 25.8042 28.2506 25.2678 27.8551 24.8723C27.4596 24.4767 26.9231 24.2545 26.3637 24.2545C25.8044 24.2545 25.2679 24.4767 24.8724 24.8723C24.4768 25.2678 24.2546 25.8042 24.2546 26.3636V91.7454H89.6365C90.1958 91.7454 90.7323 91.5232 91.1278 91.1277C91.5233 90.7322 91.7455 90.1957 91.7455 89.6363C91.7455 89.077 91.5233 88.5405 91.1278 88.145C90.7323 87.7494 90.1958 87.5272 89.6365 87.5272H28.4728Z" fill="#F0F1F1"/>
<path d="M34.8 70.6545H47.4546V87.5273H34.8V70.6545Z" fill="#0484AB"/>
<path d="M53.7817 59.0546H66.4363V87.5273H53.7817V59.0546Z" fill="#0484AB"/>
<path d="M72.7637 35.8545H85.4182V87.5272H72.7637V35.8545Z" fill="#0484AB"/>
<path d="M74.104 47.1012C74.529 37.4933 67.086 29.3595 57.478 28.9346C47.8701 28.5096 39.7364 35.9526 39.3114 45.5605C39.1795 48.4469 39.7711 51.3204 41.0324 53.9199L25.9556 69.0358C27.1683 72.656 29.5853 75.0678 33.2087 76.271L48.0261 61.4156C50.4387 62.8118 53.1526 63.6052 55.9373 63.7282C65.5453 64.1522 73.679 56.7092 74.104 47.1012Z" fill="#9CE5F4"/>
<path d="M57.478 28.9346C47.8701 28.5086 39.7364 35.9526 39.3114 45.5606C39.1796 48.4469 39.7712 51.3204 41.0324 53.92L25.9556 69.0358C26.6305 71.0532 27.6945 72.6804 29.1181 73.9469L69.02 34.045C66.0494 31.0659 62.0115 29.135 57.478 28.9346Z" fill="#C9F2F8"/>
<path d="M56.7081 58.7688C63.5777 58.7688 69.1465 53.2 69.1465 46.3305C69.1465 39.4609 63.5777 33.8921 56.7081 33.8921C49.8386 33.8921 44.2698 39.4609 44.2698 46.3305C44.2698 53.2 49.8386 58.7688 56.7081 58.7688Z" fill="#40C9E7"/>
<path d="M57.2576 33.9047C50.3946 33.601 44.5851 38.918 44.2814 45.78C44.1201 49.416 45.5469 52.7463 47.9354 55.1285L65.5052 37.5577C63.3134 35.3459 60.3684 34.0416 57.2576 33.9047Z" fill="#6FDAF1"/>
<path d="M41.0324 53.9199L25.9556 69.0358C27.1683 72.656 29.5853 75.0678 33.2087 76.271L48.0261 61.4156C44.9986 59.6716 42.5628 57.0609 41.0324 53.9199Z" fill="#84462D"/>
<path d="M41.0324 53.9199L25.9556 69.0358C26.6305 71.0531 27.6945 72.6803 29.1181 73.9468L44.4217 58.6432C43.0351 57.27 41.8893 55.6733 41.0324 53.9199Z" fill="#9C6144"/>
<path d="M44.8245 64.6236L48.025 61.4146C44.9974 59.6715 42.5617 57.0609 41.0323 53.9199L37.5713 57.3894L44.8245 64.6236Z" fill="#F3B607"/>
<path d="M41.0323 53.9199L37.5713 57.3894L41.6281 61.4367L44.4206 58.6443C43.0348 57.2701 41.8895 55.6732 41.0323 53.9199Z" fill="#FBE158"/>
</g>
<defs>
<clipPath id="clip0_285_1659">
<rect width="116" height="116" fill="white"/>
</clipPath>
</defs>
</svg>
