<svg width="38" height="52" viewBox="0 0 38 52" fill="none" xmlns="http://www.w3.org/2000/svg">
<path d="M0.676147 28.0084V17.7645L7.32689 22.8864L0.676147 28.0084Z" fill="#BB282C"/>
<path d="M7.43187 12.027V22.2709L0.781128 17.149L7.43187 12.027Z" fill="#CF2425"/>
<path d="M21.9236 23.2493V33.4933L15.2728 28.3713L21.9236 23.2493Z" fill="#3BA436"/>
<path d="M21.9236 34.8719V45.1158L15.2728 39.9938L21.9236 34.8719Z" fill="#128F43"/>
<path d="M23.3993 11.7666V22.0105L16.7485 16.8885L23.3993 11.7666Z" fill="#3DBAF8"/>
<path d="M7.89014 10.8664V0.622429L14.5409 5.74439L7.89014 10.8664Z" fill="#ED5C26"/>
<path d="M7.43187 0.622429V10.8664L0.781128 5.74439L7.43187 0.622429Z" fill="#E73D25"/>
<path d="M14.7147 6.20016V16.4441L8.06396 11.3221L14.7147 6.20016Z" fill="#EF4927"/>
<path d="M0.694214 16.5743V6.33036L7.34495 11.4523L0.694214 16.5743Z" fill="#DD2428"/>
<path d="M15.1713 16.4441V6.20016L21.822 11.3221L15.1713 16.4441Z" fill="#ED5E22"/>
<path d="M15.1859 27.7167V17.4728L21.8366 22.5948L15.1859 27.7167Z" fill="#80B830"/>
<path d="M15.2728 39.2932V29.0493L21.9236 34.1712L15.2728 39.2932Z" fill="#0A9C49"/>
<path d="M15.1488 50.9018V40.6579L21.7995 45.7799L15.1488 50.9018Z" fill="#167F3E"/>
<path d="M30.36 51.0329V40.789L37.0107 45.9109L30.36 51.0329Z" fill="#0072BC"/>
<path d="M30.3964 39.3566V29.1127L37.0471 34.2346L30.3964 39.3566Z" fill="#0072BC"/>
<path d="M30.3964 27.8087V17.5648L37.0471 22.6868L30.3964 27.8087Z" fill="#0072BC"/>
<path d="M37.0471 11.7666V22.0105L30.3964 16.8885L37.0471 11.7666Z" fill="#0072BC"/>
<path d="M29.8591 1.92461V6.11072L27.3954 4.01767L29.8591 1.92461Z" fill="#1784C7"/>
<path d="M37.134 23.324V33.5679L30.4833 28.4459L37.134 23.324Z" fill="#0072BC"/>
<path d="M37.0471 34.9673V45.2113L30.3964 40.0893L37.0471 34.9673Z" fill="#0072BC"/>
<path d="M27.135 12.4767V6.11332L31.0928 9.29501L27.135 12.4767Z" fill="#C2D135"/>
<path d="M31.6162 4.73562V2.9247L32.6232 3.83016L31.6162 4.73562Z" fill="#209ED4"/>
</svg>
