<svg width="48" height="36" viewBox="0 0 48 36" fill="none" xmlns="http://www.w3.org/2000/svg">
<g clip-path="url(#clip0_55_1422)">
<path d="M0 0H48V12H0V0Z" fill="#FF9933"/>
<path d="M0 12H48V24H0V12Z" fill="white"/>
<path d="M0 24H48V36H0V24Z" fill="#128807"/>
<path d="M24 22.8002C26.6509 22.8002 28.8 20.6512 28.8 18.0002C28.8 15.3492 26.6509 13.2002 24 13.2002C21.349 13.2002 19.2 15.3492 19.2 18.0002C19.2 20.6512 21.349 22.8002 24 22.8002Z" fill="#000088"/>
<path d="M24 22.1998C26.3196 22.1998 28.2 20.3194 28.2 17.9998C28.2 15.6802 26.3196 13.7998 24 13.7998C21.6805 13.7998 19.8 15.6802 19.8 17.9998C19.8 20.3194 21.6805 22.1998 24 22.1998Z" fill="white"/>
<path d="M24.0002 18.8402C24.4641 18.8402 24.8402 18.4641 24.8402 18.0002C24.8402 17.5362 24.4641 17.1602 24.0002 17.1602C23.5362 17.1602 23.1602 17.5362 23.1602 18.0002C23.1602 18.4641 23.5362 18.8402 24.0002 18.8402Z" fill="#000088"/>
<path d="M28.1358 18.7641C28.2541 18.7797 28.3626 18.6964 28.3781 18.5782C28.3937 18.4599 28.3105 18.3514 28.1922 18.3358C28.0739 18.3202 27.9654 18.4035 27.9498 18.5218C27.9343 18.64 28.0175 18.7485 28.1358 18.7641Z" fill="#000088"/>
<path d="M24 22.2L24.144 19.68L24 18.48L23.856 19.68L24 22.2Z" fill="#000088"/>
<path d="M27.7974 19.8084C27.9076 19.8541 28.034 19.8018 28.0796 19.6915C28.1253 19.5813 28.073 19.455 27.9627 19.4093C27.8525 19.3637 27.7262 19.416 27.6805 19.5262C27.6349 19.6364 27.6872 19.7628 27.7974 19.8084Z" fill="#000088"/>
<path d="M22.9131 22.0568L23.7044 19.6599L23.8759 18.4635L23.4262 19.5854L22.9131 22.0568Z" fill="#000088"/>
<path d="M27.1999 20.7296C27.2945 20.8022 27.4301 20.7844 27.5027 20.6897C27.5754 20.5951 27.5575 20.4595 27.4629 20.3869C27.3682 20.3142 27.2326 20.3321 27.16 20.4267C27.0874 20.5214 27.1052 20.657 27.1999 20.7296Z" fill="#000088"/>
<path d="M21.9002 21.6374L23.2849 19.527L23.7602 18.4158L23.0355 19.383L21.9002 21.6374Z" fill="#000088"/>
<path d="M26.3845 21.4646C26.4571 21.5593 26.5927 21.5771 26.6873 21.5045C26.782 21.4319 26.7998 21.2963 26.7272 21.2016C26.6546 21.107 26.519 21.0891 26.4243 21.1618C26.3297 21.2344 26.3118 21.37 26.3845 21.4646Z" fill="#000088"/>
<path d="M21.0302 20.9701L22.914 19.29L23.6607 18.3396L22.7103 19.0863L21.0302 20.9701Z" fill="#000088"/>
<path d="M25.4062 21.9635C25.4519 22.0737 25.5782 22.1261 25.6884 22.0804C25.7986 22.0348 25.851 21.9084 25.8053 21.7982C25.7597 21.688 25.6333 21.6356 25.5231 21.6813C25.4129 21.7269 25.3605 21.8533 25.4062 21.9635Z" fill="#000088"/>
<path d="M20.3626 20.0999L22.617 18.9646L23.5842 18.2399L22.473 18.7152L20.3626 20.0999Z" fill="#000088"/>
<path d="M24.3323 22.1924C24.3479 22.3107 24.4564 22.3939 24.5747 22.3784C24.6929 22.3628 24.7762 22.2543 24.7606 22.136C24.745 22.0178 24.6365 21.9345 24.5183 21.9501C24.4 21.9656 24.3167 22.0741 24.3323 22.1924Z" fill="#000088"/>
<path d="M19.9428 19.0868L22.4142 18.5736L23.536 18.124L22.3397 18.2954L19.9428 19.0868Z" fill="#000088"/>
<path d="M23.2359 22.1358C23.2203 22.2541 23.3036 22.3626 23.4218 22.3781C23.5401 22.3937 23.6486 22.3105 23.6642 22.1922C23.6798 22.0739 23.5965 21.9654 23.4782 21.9498C23.36 21.9343 23.2515 22.0175 23.2359 22.1358Z" fill="#000088"/>
<path d="M19.7998 18L22.3198 18.144L23.5198 18L22.3198 17.856L19.7998 18Z" fill="#000088"/>
<path d="M22.1916 21.7969C22.1459 21.9071 22.1982 22.0335 22.3085 22.0792C22.4187 22.1248 22.545 22.0725 22.5907 21.9623C22.6363 21.852 22.584 21.7257 22.4738 21.68C22.3636 21.6344 22.2372 21.6867 22.1916 21.7969Z" fill="#000088"/>
<path d="M19.943 16.9131L22.3398 17.7044L23.5362 17.8759L22.4144 17.4262L19.943 16.9131Z" fill="#000088"/>
<path d="M21.2704 21.1994C21.1978 21.294 21.2156 21.4296 21.3103 21.5023C21.4049 21.5749 21.5405 21.557 21.6131 21.4624C21.6858 21.3677 21.6679 21.2321 21.5733 21.1595C21.4786 21.0869 21.343 21.1048 21.2704 21.1994Z" fill="#000088"/>
<path d="M20.3626 15.8995L22.473 17.2842L23.5842 17.7595L22.617 17.0348L20.3626 15.8995Z" fill="#000088"/>
<path d="M20.5354 20.384C20.4407 20.4566 20.4229 20.5922 20.4955 20.6868C20.5681 20.7815 20.7037 20.7993 20.7984 20.7267C20.893 20.6541 20.9109 20.5185 20.8382 20.4239C20.7656 20.3292 20.63 20.3114 20.5354 20.384Z" fill="#000088"/>
<path d="M21.0302 15.03L22.7103 16.9137L23.6606 17.6604L22.9139 16.7101L21.0302 15.03Z" fill="#000088"/>
<path d="M20.0365 19.4062C19.9263 19.4519 19.8739 19.5782 19.9196 19.6884C19.9652 19.7986 20.0916 19.851 20.2018 19.8053C20.312 19.7597 20.3644 19.6333 20.3187 19.5231C20.2731 19.4129 20.1467 19.3605 20.0365 19.4062Z" fill="#000088"/>
<path d="M21.9003 14.3626L23.0356 16.617L23.7603 17.5842L23.285 16.473L21.9003 14.3626Z" fill="#000088"/>
<path d="M19.8073 18.3328C19.6891 18.3484 19.6058 18.4569 19.6214 18.5751C19.637 18.6934 19.7455 18.7767 19.8637 18.7611C19.982 18.7455 20.0653 18.637 20.0497 18.5188C20.0341 18.4005 19.9256 18.3172 19.8073 18.3328Z" fill="#000088"/>
<path d="M22.913 13.9435L23.4261 16.4149L23.8758 17.5368L23.7043 16.3404L22.913 13.9435Z" fill="#000088"/>
<path d="M19.8645 17.2359C19.7462 17.2203 19.6377 17.3036 19.6221 17.4218C19.6065 17.5401 19.6898 17.6486 19.8081 17.6642C19.9263 17.6798 20.0348 17.5965 20.0504 17.4782C20.066 17.36 19.9827 17.2515 19.8645 17.2359Z" fill="#000088"/>
<path d="M24.0003 13.8L23.8563 16.32L24.0003 17.52L24.1443 16.32L24.0003 13.8Z" fill="#000088"/>
<path d="M20.2028 16.1916C20.0926 16.1459 19.9663 16.1982 19.9206 16.3085C19.875 16.4187 19.9273 16.545 20.0375 16.5907C20.1477 16.6363 20.2741 16.584 20.3197 16.4738C20.3654 16.3636 20.313 16.2372 20.2028 16.1916Z" fill="#000088"/>
<path d="M25.0871 13.9432L24.2958 16.3401L24.1243 17.5365L24.574 16.4146L25.0871 13.9432Z" fill="#000088"/>
<path d="M20.8004 15.2704C20.7057 15.1978 20.5701 15.2156 20.4975 15.3103C20.4249 15.4049 20.4427 15.5405 20.5374 15.6131C20.632 15.6858 20.7676 15.6679 20.8402 15.5733C20.9129 15.4786 20.895 15.343 20.8004 15.2704Z" fill="#000088"/>
<path d="M26.1 14.3626L24.7153 16.473L24.24 17.5842L24.9647 16.617L26.1 14.3626Z" fill="#000088"/>
<path d="M21.6158 14.5354C21.5432 14.4407 21.4076 14.4229 21.3129 14.4955C21.2183 14.5681 21.2004 14.7037 21.273 14.7984C21.3457 14.893 21.4813 14.9109 21.5759 14.8382C21.6705 14.7656 21.6884 14.63 21.6158 14.5354Z" fill="#000088"/>
<path d="M26.97 15.0299L25.0863 16.71L24.3396 17.6604L25.2899 16.9137L26.97 15.0299Z" fill="#000088"/>
<path d="M22.5938 14.0365C22.5481 13.9263 22.4218 13.8739 22.3116 13.9196C22.2014 13.9652 22.149 14.0916 22.1947 14.2018C22.2403 14.312 22.3667 14.3644 22.4769 14.3187C22.5871 14.2731 22.6395 14.1467 22.5938 14.0365Z" fill="#000088"/>
<path d="M27.6374 15.9001L25.383 17.0354L24.4158 17.7601L25.527 17.2848L27.6374 15.9001Z" fill="#000088"/>
<path d="M23.6677 13.8076C23.6521 13.6893 23.5436 13.6061 23.4253 13.6216C23.3071 13.6372 23.2238 13.7457 23.2394 13.864C23.255 13.9822 23.3635 14.0655 23.4817 14.0499C23.6 14.0344 23.6833 13.9259 23.6677 13.8076Z" fill="#000088"/>
<path d="M28.0572 16.9132L25.5858 17.4264L24.464 17.876L25.6603 17.7046L28.0572 16.9132Z" fill="#000088"/>
<path d="M24.7641 13.8642C24.7797 13.7459 24.6964 13.6374 24.5782 13.6219C24.4599 13.6063 24.3514 13.6895 24.3358 13.8078C24.3202 13.9261 24.4035 14.0346 24.5218 14.0502C24.64 14.0657 24.7485 13.9825 24.7641 13.8642Z" fill="#000088"/>
<path d="M28.2002 18L25.6802 17.856L24.4802 18L25.6802 18.144L28.2002 18Z" fill="#000088"/>
<path d="M25.8084 14.2031C25.8541 14.0929 25.8018 13.9665 25.6915 13.9208C25.5813 13.8752 25.455 13.9275 25.4093 14.0377C25.3637 14.148 25.416 14.2743 25.5262 14.32C25.6364 14.3656 25.7628 14.3133 25.8084 14.2031Z" fill="#000088"/>
<path d="M28.057 19.0869L25.6602 18.2956L24.4638 18.1241L25.5856 18.5738L28.057 19.0869Z" fill="#000088"/>
<path d="M26.7298 14.8006C26.8025 14.706 26.7846 14.5704 26.69 14.4977C26.5953 14.4251 26.4597 14.443 26.3871 14.5376C26.3145 14.6323 26.3323 14.7679 26.427 14.8405C26.5216 14.9131 26.6572 14.8952 26.7298 14.8006Z" fill="#000088"/>
<path d="M27.6376 20.1005L25.5272 18.7158L24.416 18.2405L25.3832 18.9652L27.6376 20.1005Z" fill="#000088"/>
<path d="M27.4649 15.616C27.5595 15.5434 27.5774 15.4078 27.5047 15.3132C27.4321 15.2185 27.2965 15.2007 27.2019 15.2733C27.1072 15.3459 27.0894 15.4815 27.162 15.5761C27.2346 15.6708 27.3702 15.6886 27.4649 15.616Z" fill="#000088"/>
<path d="M26.9701 20.97L25.29 19.0863L24.3396 18.3396L25.0863 19.2899L26.9701 20.97Z" fill="#000088"/>
<path d="M27.9638 16.5938C28.074 16.5481 28.1263 16.4218 28.0807 16.3116C28.035 16.2014 27.9086 16.149 27.7984 16.1947C27.6882 16.2403 27.6359 16.3667 27.6815 16.4769C27.7272 16.5871 27.8535 16.6395 27.9638 16.5938Z" fill="#000088"/>
<path d="M26.0999 21.6374L24.9646 19.383L24.2399 18.4158L24.7152 19.527L26.0999 21.6374Z" fill="#000088"/>
<path d="M28.1929 17.6672C28.3112 17.6516 28.3944 17.5431 28.3789 17.4249C28.3633 17.3066 28.2548 17.2233 28.1365 17.2389C28.0182 17.2545 27.935 17.363 27.9506 17.4812C27.9661 17.5995 28.0746 17.6828 28.1929 17.6672Z" fill="#000088"/>
<path d="M25.0873 22.0565L24.5741 19.5851L24.1244 18.4632L24.2959 19.6596L25.0873 22.0565Z" fill="#000088"/>
</g>
<defs>
<clipPath id="clip0_55_1422">
<rect width="48" height="36" fill="white"/>
</clipPath>
</defs>
</svg>
