<svg width="60" height="60" viewBox="0 0 60 60" fill="none" xmlns="http://www.w3.org/2000/svg">
<rect width="60" height="60" rx="20" fill="#FEF1F3"/>
<path d="M30 17C27.4288 17 24.9154 17.7624 22.7776 19.1909C20.6398 20.6194 18.9735 22.6497 17.9896 25.0251C17.0056 27.4006 16.7482 30.0144 17.2498 32.5362C17.7514 35.0579 18.9895 37.3743 20.8076 39.1924C22.6257 41.0105 24.9421 42.2486 27.4638 42.7502C29.9856 43.2518 32.5995 42.9944 34.9749 42.0104C37.3503 41.0265 39.3807 39.3603 40.8091 37.2224C42.2376 35.0846 43 32.5712 43 30C42.9964 26.5533 41.6256 23.2488 39.1884 20.8116C36.7512 18.3744 33.4467 17.0036 30 17ZM34.7075 29.7075C34.6146 29.8005 34.5043 29.8742 34.3829 29.9246C34.2615 29.9749 34.1314 30.0008 34 30.0008C33.8686 30.0008 33.7385 29.9749 33.6171 29.9246C33.4957 29.8742 33.3854 29.8005 33.2925 29.7075L31 27.4137V35C31 35.2652 30.8946 35.5196 30.7071 35.7071C30.5196 35.8946 30.2652 36 30 36C29.7348 36 29.4804 35.8946 29.2929 35.7071C29.1054 35.5196 29 35.2652 29 35V27.4137L26.7075 29.7075C26.5199 29.8951 26.2654 30.0006 26 30.0006C25.7346 30.0006 25.4801 29.8951 25.2925 29.7075C25.1049 29.5199 24.9994 29.2654 24.9994 29C24.9994 28.7346 25.1049 28.4801 25.2925 28.2925L29.2925 24.2925C29.3854 24.1995 29.4957 24.1258 29.6171 24.0754C29.7385 24.0251 29.8686 23.9992 30 23.9992C30.1314 23.9992 30.2615 24.0251 30.3829 24.0754C30.5043 24.1258 30.6146 24.1995 30.7075 24.2925L34.7075 28.2925C34.8005 28.3854 34.8742 28.4957 34.9246 28.6171C34.9749 28.7385 35.0008 28.8686 35.0008 29C35.0008 29.1314 34.9749 29.2615 34.9246 29.3829C34.8742 29.5043 34.8005 29.6146 34.7075 29.7075Z" fill="#F72237"/>
</svg>
